name D:\school\WTK\thesis\model\3dpredictsim\Results\MidTarsalJoint\Fal_s1_bCst_PF_Natali2010_ls150_MT_nl_fitted6_MTP_T2_ig24.mot
datacolumns 128
datarows 4
range 0.56673434 0.60073840
endheader
time	pelvis_tilt	pelvis_list	pelvis_rotation	pelvis_tx	pelvis_ty	pelvis_tz	hip_flexion_l	hip_adduction_l	hip_rotation_l	hip_flexion_r	hip_adduction_r	hip_rotation_r	knee_angle_l	knee_angle_r	ankle_angle_l	ankle_angle_r	subtalar_angle_l	subtalar_angle_r	tmt_angle_l	tmt_angle_r	mtp_angle_l	mtp_angle_r	lumbar_extension	lumbar_bending	lumbar_rotation	arm_flex_l	arm_add_l	arm_rot_l	arm_flex_r	arm_add_r	arm_rot_r	elbow_flex_l	elbow_flex_r	pro_sup_l	pro_sup_r	glut_med1_l/activation	glut_med2_l/activation	glut_med3_l/activation	glut_min1_l/activation	glut_min2_l/activation	glut_min3_l/activation	semimem_l/activation	semiten_l/activation	bifemlh_l/activation	bifemsh_l/activation	sar_l/activation	add_long_l/activation	add_brev_l/activation	add_mag1_l/activation	add_mag2_l/activation	add_mag3_l/activation	tfl_l/activation	pect_l/activation	grac_l/activation	glut_max1_l/activation	glut_max2_l/activation	glut_max3_l/activation	iliacus_l/activation	psoas_l/activation	quad_fem_l/activation	gem_l/activation	peri_l/activation	rect_fem_l/activation	vas_med_l/activation	vas_int_l/activation	vas_lat_l/activation	med_gas_l/activation	lat_gas_l/activation	soleus_l/activation	tib_post_l/activation	flex_dig_l/activation	flex_hal_l/activation	tib_ant_l/activation	per_brev_l/activation	per_long_l/activation	per_tert_l/activation	ext_dig_l/activation	ext_hal_l/activation	ercspn_l/activation	intobl_l/activation	extobl_l/activation	glut_med1_r/activation	glut_med2_r/activation	glut_med3_r/activation	glut_min1_r/activation	glut_min2_r/activation	glut_min3_r/activation	semimem_r/activation	semiten_r/activation	bifemlh_r/activation	bifemsh_r/activation	sar_r/activation	add_long_r/activation	add_brev_r/activation	add_mag1_r/activation	add_mag2_r/activation	add_mag3_r/activation	tfl_r/activation	pect_r/activation	grac_r/activation	glut_max1_r/activation	glut_max2_r/activation	glut_max3_r/activation	iliacus_r/activation	psoas_r/activation	quad_fem_r/activation	gem_r/activation	peri_r/activation	rect_fem_r/activation	vas_med_r/activation	vas_int_r/activation	vas_lat_r/activation	med_gas_r/activation	lat_gas_r/activation	soleus_r/activation	tib_post_r/activation	flex_dig_r/activation	flex_hal_r/activation	tib_ant_r/activation	per_brev_r/activation	per_long_r/activation	per_tert_r/activation	ext_dig_r/activation	ext_hal_r/activation	ercspn_r/activation	intobl_r/activation	extobl_r/activation	
          0.56673434	         -2.93002607	          1.94783140	         -5.22127358	          0.70841792	          0.91839215	          0.00242666	         29.77736459	          3.26376947	         -1.93552200	        -16.43091404	         -0.65064280	          6.55429194	        -11.37016985	         -7.81490386	          5.36763684	         -2.20850927	         -5.51337436	          8.19065802	         -0.61369400	          6.90526621	          4.10409772	          9.70161718	         -1.94050307	         -0.17015412	          1.91112505	         -4.33380592	        -13.45524985	          8.09843095	          5.15331911	        -13.45148712	         16.54672350	         15.87291797	         32.64478678	         86.51662706	         86.51662706	          0.05000008	          0.05000007	          0.05944553	          0.05000002	          0.05000004	          0.05000022	          0.19562138	          0.05944582	          0.07479491	          0.05000064	          0.05000017	          0.10295834	          0.18855290	          0.19246256	          0.16396313	          0.09962740	          0.05944555	          0.05000209	          0.12885638	          0.05944562	          0.05944576	          0.10349643	          0.05000003	          0.05000004	          0.23027537	          0.05000369	          0.05000011	          0.05000004	          0.08231616	          0.08377877	          0.06822234	          0.05944557	          0.05944558	          0.05944556	          0.05000017	          0.05000018	          0.05000203	          0.46307608	          0.29332027	          0.18779208	          0.08390693	          0.46544071	          0.05000027	          0.05944557	          0.12660959	          0.10507609	          0.33448624	          0.11300000	          0.08342771	          0.31023779	          0.21246798	          0.11877289	          0.05000026	          0.05000005	          0.05000003	          0.06323732	          0.11837742	          0.05000003	          0.05000002	          0.05000003	          0.05000012	          0.05000009	          0.31739826	          0.05000014	          0.05000008	          0.05000201	          0.05000072	          0.05000023	          0.40286994	          0.62263742	          0.05000004	          0.05000014	          0.06103743	          0.20818685	          0.05000017	          0.05000010	          0.05000009	          0.30514399	          0.40321000	          0.36426307	          0.28334892	          0.26810958	          0.35356105	          0.05000000	          0.05944677	          0.13540743	          0.05000006	          0.05000001	          0.05000005	          0.05000000	          0.05000000	          0.05000000	
          0.57806902	         -2.92889890	          2.04569350	         -5.47955921	          0.72529789	          0.91754605	          0.00219893	         29.19570275	          3.66403802	         -1.75342300	        -16.29186382	         -0.94579638	          6.35388144	        -11.43722243	         -9.76836355	          4.69968430	         -2.75842586	         -5.90572760	          9.14364817	         -0.68182756	          6.32051859	          3.79704543	         11.14270164	         -1.75740517	         -0.38189178	          1.98344952	         -5.19956939	        -13.45120835	          7.82038696	          4.91570410	        -13.45975149	         16.90795574	         15.50118992	         33.79983223	         86.51662706	         86.51662706	          0.05000010	          0.05000008	          0.05000003	          0.05944554	          0.05000091	          0.05000007	          0.16453824	          0.05000022	          0.06291042	          0.05000007	          0.05000080	          0.11877310	          0.24407105	          0.25884722	          0.17107528	          0.08515506	          0.05000005	          0.07067897	          0.10838197	          0.05000011	          0.05000018	          0.11239720	          0.07067543	          0.07067476	          0.56157175	          0.19567203	          0.15533107	          0.08402691	          0.20850457	          0.20759563	          0.17750705	          0.05000000	          0.05000002	          0.05000000	          0.05000004	          0.05000030	          0.05000019	          0.54504235	          0.24671336	          0.18607467	          0.26310471	          0.50144095	          0.07214655	          0.05000000	          0.10649203	          0.08838009	          0.28133826	          0.09504494	          0.07017152	          0.26094275	          0.17870801	          0.09990055	          0.05000073	          0.05000014	          0.05000019	          0.05318928	          0.09956796	          0.10491670	          0.08845752	          0.05340882	          0.05000224	          0.05000127	          0.26696547	          0.08548276	          0.05000479	          0.05000083	          0.05000049	          0.05000046	          0.33885615	          0.52370392	          0.05000025	          0.05002518	          0.05944557	          0.17510714	          0.05000028	          0.14424795	          0.13894764	          0.25665830	          0.33914218	          0.32134935	          0.24536290	          0.22550861	          0.29738235	          0.05000000	          0.05000105	          0.12852840	          0.05000003	          0.05000000	          0.05000004	          0.05000001	          0.07154631	          0.05854408	
          0.58940371	         -2.92360612	          2.14399553	         -5.70889730	          0.74252861	          0.91671961	          0.00198915	         28.47451846	          3.98538065	         -1.50710453	        -16.11431690	         -1.23892756	          6.14830014	        -11.85735990	        -11.78312126	          4.12754377	         -3.39206685	         -6.30586968	         10.04831992	         -0.87800526	          5.51116737	          3.56114001	         12.69408201	         -1.54951922	         -0.60248097	          2.04496605	         -6.10060861	        -13.45369969	          7.59492348	          4.58989066	        -13.46618393	         17.18250989	         15.17634254	         34.94869121	         86.51662706	         86.51662706	          0.23983328	          0.05000003	          0.15869964	          0.05000003	          0.05000003	          0.19631959	          0.15227002	          0.08652831	          0.07322708	          0.05000002	          0.05000010	          0.09990073	          0.20528954	          0.21771787	          0.14389242	          0.08997973	          0.05000026	          0.05944870	          0.09116160	          0.05000022	          0.05000218	          0.09453794	          0.05944555	          0.05944514	          0.47234112	          0.16458084	          0.13064995	          0.07067550	          0.17537436	          0.17460984	          0.14930217	          0.05555453	          0.05756242	          0.05599407	          0.05000168	          0.05000026	          0.05000026	          0.45843826	          0.27393203	          0.15650852	          0.22129884	          0.56038338	          0.06068286	          0.05000000	          0.11337789	          0.07433698	          0.35016473	          0.07994283	          0.05902167	          0.21948044	          0.15031232	          0.08402692	          0.05000089	          0.05000020	          0.05000013	          0.05000003	          0.08374721	          0.13369883	          0.09367282	          0.05944586	          0.05944578	          0.05944562	          0.22454631	          0.08400436	          0.05002195	          0.05000216	          0.05000382	          0.05944539	          0.28501383	          0.50798292	          0.05000500	          0.05000024	          0.05000003	          0.14728360	          0.11532831	          0.12132803	          0.11686978	          0.21587672	          0.28525437	          0.27028872	          0.20637611	          0.18967658	          0.25012997	          0.05000000	          0.05000008	          0.15428431	          0.05000003	          0.05000001	          0.05000003	          0.05281719	          0.06017800	          0.05944561	
          0.60073840	         -2.91574803	          2.23944891	         -5.90266186	          0.75994931	          0.91593813	          0.00177760	         27.62432886	          4.24318461	         -1.25398783	        -15.88225435	         -1.52402584	          5.94815586	        -12.21212325	        -13.86494167	          3.47017282	         -4.06816402	         -6.70170664	         10.89588938	         -0.92966299	          4.40891189	          3.44984263	         14.38524484	         -1.33348279	         -0.82762344	          2.09683457	         -6.99774919	        -13.46093292	          7.43458084	          4.19781101	        -13.47416951	         17.37954094	         14.87619351	         36.08352903	         86.51662706	         86.51662706	          0.29724617	          0.26170902	          0.31351817	          0.19026728	          0.21420561	          0.16512862	          0.12807516	          0.07277957	          0.06159172	          0.08402691	          0.05000838	          0.08402707	          0.17267018	          0.18312374	          0.12102878	          0.11360301	          0.05000012	          0.05000272	          0.07667983	          0.18731699	          0.13831455	          0.09417252	          0.05000002	          0.05000002	          0.39728874	          0.13842990	          0.15563722	          0.05944556	          0.14750839	          0.14686538	          0.12557892	          0.05000003	          0.05000006	          0.05000000	          0.05000000	          0.05000004	          0.05000005	          0.56404450	          0.34041683	          0.18346809	          0.54327732	          0.53885716	          0.22463599	          0.07280148	          0.09990070	          0.06252525	          0.32141218	          0.06724037	          0.05000002	          0.38221621	          0.12642855	          0.07067552	          0.05000045	          0.05000003	          0.05000003	          0.05000007	          0.07067416	          0.11245493	          0.07878875	          0.05000028	          0.05000031	          0.05000012	          0.23442825	          0.07065695	          0.05000013	          0.05000033	          0.05000017	          0.05000011	          0.23972673	          0.47011636	          0.05000002	          0.05000018	          0.05000014	          0.12402678	          0.09700343	          0.12863218	          0.11877296	          0.18157511	          0.23992903	          0.22734134	          0.17358410	          0.15953804	          0.21038572	          0.06582206	          0.09893246	          0.15325214	          0.05000009	          0.10761950	          0.05000016	          0.06523810	          0.05061605	          0.05000003	
